<svg xmlns="http://www.w3.org/2000/svg" xmlns:xlink="http://www.w3.org/1999/xlink" width="1024" zoomAndPan="magnify" viewBox="0 0 768 767.999994" height="1024" preserveAspectRatio="xMidYMid meet" version="1.0"><defs><clipPath id="f7cae996c8"><path d="M 64 159 L 565 159 L 565 728 L 64 728 Z M 64 159 " clip-rule="nonzero"/></clipPath><clipPath id="bd954f6aa8"><path d="M 506.738281 119.488281 L 608.644531 208.304688 L 121.917969 766.78125 L 20.011719 677.96875 Z M 506.738281 119.488281 " clip-rule="nonzero"/></clipPath><clipPath id="7458d225fc"><path d="M 563.648438 183.257812 L 560.34375 195.84375 C 556.136719 211.859375 549.972656 227.292969 541.984375 241.796875 L 533.40625 257.371094 C 519.679688 282.292969 504.601562 306.449219 488.238281 329.726562 L 479.828125 341.691406 C 457.851562 372.953125 434.746094 403.40625 410.5625 432.992188 L 406.273438 438.238281 C 379.226562 471.324219 351.148438 503.550781 322.078125 534.875 L 316.273438 541.128906 C 290.542969 568.851562 263.796875 595.617188 236.089844 621.363281 L 225.800781 630.921875 C 204.957031 650.289062 183.082031 668.515625 160.269531 685.519531 L 146.011719 696.144531 C 132.738281 706.039062 118.289062 714.257812 103 720.613281 L 90.984375 725.605469 C 84.242188 728.410156 76.492188 727.144531 70.988281 722.347656 C 65.484375 717.550781 63.175781 710.046875 65.03125 702.988281 L 68.335938 690.402344 C 72.542969 674.386719 78.707031 658.949219 86.695312 644.445312 L 95.273438 628.875 C 109 603.949219 124.066406 579.789062 140.402344 556.492188 L 148.464844 544.996094 C 170.183594 514.03125 193.039062 483.878906 216.988281 454.601562 L 222.390625 447.996094 C 249.449219 414.917969 277.535156 382.699219 306.613281 351.382812 L 311.222656 346.417969 C 337.226562 318.417969 364.238281 291.367188 392.203125 265.328125 L 402.90625 255.359375 C 423.730469 235.96875 445.597656 217.730469 468.410156 200.726562 L 482.664062 190.101562 C 495.941406 180.207031 510.390625 171.988281 525.679688 165.632812 L 537.695312 160.640625 C 544.4375 157.835938 552.183594 159.097656 557.691406 163.898438 C 563.195312 168.695312 565.503906 176.195312 563.648438 183.257812 Z M 563.648438 183.257812 " clip-rule="nonzero"/></clipPath><clipPath id="77427d9fcd"><path d="M 0 0 L 501 0 L 501 569 L 0 569 Z M 0 0 " clip-rule="nonzero"/></clipPath><clipPath id="6df876b5a5"><path d="M 442.738281 -39.511719 L 544.644531 49.304688 L 57.917969 607.78125 L -43.988281 518.96875 Z M 442.738281 -39.511719 " clip-rule="nonzero"/></clipPath><clipPath id="9bbfe34cab"><path d="M 499.648438 24.257812 L 496.34375 36.84375 C 492.136719 52.859375 485.972656 68.292969 477.984375 82.796875 L 469.40625 98.371094 C 455.679688 123.292969 440.601562 147.449219 424.238281 170.726562 L 415.828125 182.691406 C 393.851562 213.953125 370.746094 244.40625 346.5625 273.992188 L 342.273438 279.238281 C 315.226562 312.324219 287.148438 344.550781 258.078125 375.875 L 252.273438 382.128906 C 226.542969 409.851562 199.796875 436.617188 172.089844 462.363281 L 161.800781 471.921875 C 140.957031 491.289062 119.082031 509.515625 96.269531 526.519531 L 82.011719 537.144531 C 68.738281 547.039062 54.289062 555.257812 39 561.613281 L 26.984375 566.605469 C 20.242188 569.410156 12.492188 568.144531 6.988281 563.347656 C 1.484375 558.550781 -0.824219 551.046875 1.03125 543.988281 L 4.335938 531.402344 C 8.542969 515.386719 14.707031 499.949219 22.695312 485.445312 L 31.273438 469.875 C 45 444.949219 60.066406 420.789062 76.402344 397.492188 L 84.464844 385.996094 C 106.183594 355.03125 129.039062 324.878906 152.988281 295.601562 L 158.390625 288.996094 C 185.449219 255.917969 213.535156 223.699219 242.613281 192.382812 L 247.222656 187.417969 C 273.226562 159.417969 300.238281 132.367188 328.203125 106.328125 L 338.90625 96.359375 C 359.730469 76.96875 381.597656 58.730469 404.410156 41.726562 L 418.664062 31.101562 C 431.941406 21.207031 446.390625 12.988281 461.679688 6.632812 L 473.695312 1.640625 C 480.4375 -1.164062 488.183594 0.0976562 493.691406 4.898438 C 499.195312 9.695312 501.503906 17.195312 499.648438 24.257812 Z M 499.648438 24.257812 " clip-rule="nonzero"/></clipPath><clipPath id="6a8c8a92c1"><rect x="0" width="501" y="0" height="569"/></clipPath><clipPath id="f2fa12e422"><path d="M 35.042969 0 L 748.960938 0 L 748.960938 763.21875 L 35.042969 763.21875 Z M 35.042969 0 " clip-rule="nonzero"/></clipPath><clipPath id="337b07cfc3"><rect x="0" width="714" y="0" height="764"/></clipPath><clipPath id="e9e3b059b2"><rect x="0" width="750" y="0" height="768"/></clipPath></defs><g transform="matrix(1, 0, 0, 1, 0, -0.000000000000057351)"><g clip-path="url(#e9e3b059b2)"><g clip-path="url(#f7cae996c8)"><g clip-path="url(#bd954f6aa8)"><g clip-path="url(#7458d225fc)"><g transform="matrix(1, 0, 0, 1, 64, 159)"><g clip-path="url(#6a8c8a92c1)"><g clip-path="url(#77427d9fcd)"><g clip-path="url(#6df876b5a5)"><g clip-path="url(#9bbfe34cab)"><path fill="#d2ffd8" d="M 442.335938 -39.859375 L 545.042969 49.652344 L 57.621094 608.933594 L -45.085938 519.421875 Z M 442.335938 -39.859375 " fill-opacity="1" fill-rule="nonzero"/></g></g></g></g></g></g></g></g><g clip-path="url(#f2fa12e422)"><g transform="matrix(1, 0, 0, 1, 35, -0.000000000000057351)"><g clip-path="url(#337b07cfc3)"><path fill="#39b54a" d="M 43.582031 726.167969 C 111.726562 746.765625 242.894531 773.878906 372.921875 717.015625 C 586.246094 623.71875 713.9375 340.511719 656.175781 24.382812 C 381.363281 13.605469 140.71875 147.375 50.867188 356.949219 C -9.65625 498.125 15.203125 634.136719 31.851562 697.992188 C 74.464844 625.652344 130.46875 543.492188 203.703125 459.347656 C 316.722656 329.476562 433.234375 237.980469 527.4375 175.433594 C 434.0625 260.390625 334.234375 361.03125 234 479.058594 C 161.675781 564.222656 98.550781 647.363281 43.582031 726.167969 Z M 43.582031 726.167969 " fill-opacity="1" fill-rule="nonzero"/></g></g></g></g></g></svg>